<svg xmlns="http://www.w3.org/2000/svg" viewBox="0 0 320 360" role="img" aria-label="Maillot équipe de France">
  <path d="M95 40 L125 70 L160 55 L195 70 L225 40 L260 75 L240 120 L250 320 L70 320 L80 120 L60 75 Z" fill="#1d4ed8"/>
  <path d="M125 70 L160 95 L195 70 L195 120 L160 140 L125 120 Z" fill="#fff"/>
  <path d="M145 95 L160 108 L175 95 L175 115 L160 125 L145 115 Z" fill="#ef4444"/>
  <path d="M95 40 L125 70 L80 120 L60 75 Z" fill="#1e40af"/>
  <path d="M225 40 L195 70 L240 120 L260 75 Z" fill="#1e40af"/>
  <rect x="148" y="155" width="24" height="3" fill="#fbbf24" rx="1"/>
  <text x="160" y="200" text-anchor="middle" fill="#fff" font-size="22" font-weight="900" font-family="system-ui,sans-serif">FRA</text>
  <text x="160" y="280" text-anchor="middle" fill="#93c5fd" font-size="11" font-weight="600" font-family="system-ui,sans-serif">OFFICIEL</text>
</svg>
